<?xml version="1.0" standalone="no"?>
<!DOCTYPE svg PUBLIC "-//W3C//DTD SVG 20010904//EN"
 "http://www.w3.org/TR/2001/REC-SVG-20010904/DTD/svg10.dtd">
<svg version="1.0" xmlns="http://www.w3.org/2000/svg"
 width="250.000000pt" height="250.000000pt" viewBox="0 0 250.000000 250.000000"
 preserveAspectRatio="xMidYMid meet">
<metadata>
Created by potrace 1.14, written by Peter Selinger 2001-2017
</metadata>
<g transform="translate(0.000000,250.000000) scale(0.100000,-0.100000)"
fill="#000000" stroke="none">
<path d="M1030 2480 c-47 -10 -87 -16 -89 -14 -2 2 -9 0 -15 -5 -6 -5 -31 -15
-56 -22 -25 -7 -47 -14 -50 -15 -3 -1 -15 -5 -28 -9 -53 -17 -207 -104 -282
-160 -100 -72 -230 -208 -293 -303 -42 -64 -149 -269 -147 -282 0 -3 -8 -34
-19 -70 -11 -36 -22 -78 -25 -95 -3 -16 -10 -52 -15 -78 -7 -39 -9 -342 -2
-342 2 0 7 -23 14 -75 8 -52 51 -188 80 -255 120 -273 330 -494 592 -623 92
-46 229 -94 300 -106 17 -3 52 -10 79 -15 85 -16 318 -10 409 11 45 10 92 21
103 23 39 9 154 55 227 91 121 60 207 124 317 234 149 148 246 304 309 497 30
92 34 108 52 232 12 82 5 317 -10 371 -6 20 -12 49 -15 65 -2 17 -6 37 -9 45
-3 8 -16 44 -27 80 -93 282 -318 543 -600 697 -92 49 -244 103 -340 119 -19 3
-39 9 -44 12 -5 3 -82 6 -170 8 -125 2 -180 -2 -246 -16z"/>
</g>
</svg>
